<?xml version="1.0" encoding="UTF-8" standalone="no"?>
<svg width="21px" height="22px" viewBox="0 0 21 22" version="1.1" xmlns="http://www.w3.org/2000/svg" xmlns:xlink="http://www.w3.org/1999/xlink">
    <!-- Generator: Sketch 50.2 (55047) - http://www.bohemiancoding.com/sketch -->
    <title>icon/linkedin</title>
    <desc>Created with Sketch.</desc>
    <defs></defs>
    <g id="Symbols" stroke="none" stroke-width="1" fill="none" fill-rule="evenodd">
        <g id="Contact-Us/fin" transform="translate(-189.000000, -557.000000)" fill="#FFFFFF" fill-rule="nonzero">
            <g id="Group" transform="translate(0.000000, 216.000000)">
                <path d="M193.747826,362 L189.365217,362 L189.365217,348.030435 L193.747826,348.030435 L193.747826,362 Z M191.556522,346.113043 C190.186957,346.113043 189,345.017391 189,343.556522 C189,342.186957 190.095652,341 191.556522,341 C192.926087,341 194.113043,342.095652 194.113043,343.556522 C194.113043,345.017391 192.926087,346.113043 191.556522,346.113043 Z M210,362 L205.708696,362 L205.708696,355.243478 C205.708696,353.6 205.708696,351.591304 203.426087,351.591304 C201.143478,351.591304 200.869565,353.326087 200.869565,355.152174 L200.869565,362.091304 L196.578261,362.091304 L196.578261,348.030435 L200.595652,348.030435 L200.595652,349.947826 L200.686957,349.947826 C201.234783,348.852174 202.695652,347.665217 204.795652,347.665217 C209.178261,347.665217 210,350.586957 210,354.330435 L210,362 Z" id="icon/linkedin"></path>
            </g>
        </g>
    </g>
</svg>