<?xml version="1.0" encoding="UTF-8" standalone="no"?>
<svg width="21px" height="17px" viewBox="0 0 21 17" version="1.1" xmlns="http://www.w3.org/2000/svg" xmlns:xlink="http://www.w3.org/1999/xlink">
    <!-- Generator: Sketch 50.2 (55047) - http://www.bohemiancoding.com/sketch -->
    <title>icon/twitter@1x</title>
    <desc>Created with Sketch.</desc>
    <defs></defs>
    <g id="Symbols" stroke="none" stroke-width="1" fill="none" fill-rule="evenodd">
        <g id="Contact-Us/fin" transform="translate(-188.000000, -695.000000)" fill="#FFFFFF" fill-rule="nonzero">
            <g id="Group" transform="translate(0.000000, 216.000000)">
                <path d="M208.525773,480.967053 C207.756057,481.309149 206.98634,481.565722 206.1311,481.651246 C206.98634,481.138101 207.670533,480.282861 208.012629,479.342096 C207.157388,479.855241 206.302148,480.197337 205.361383,480.368385 C204.591667,479.513144 203.479854,479 202.282517,479 C199.973368,479 198.091838,480.881529 198.091838,483.190679 C198.091838,483.532775 198.091838,483.874871 198.177363,484.131443 C194.585352,483.960395 191.506486,482.249914 189.453909,479.684192 C189.026289,480.368385 188.855241,481.052577 188.855241,481.822294 C188.855241,483.276203 189.624957,484.559064 190.73677,485.32878 C190.052577,485.32878 189.368385,485.157732 188.855241,484.815636 C188.855241,484.815636 188.855241,484.815636 188.855241,484.90116 C188.855241,486.953737 190.309149,488.664218 192.190679,489.006314 C191.848582,489.091838 191.506486,489.177363 191.078866,489.177363 C190.822294,489.177363 190.565722,489.177363 190.309149,489.091838 C190.822294,490.80232 192.361727,491.999656 194.243256,491.999656 C192.789347,493.111469 190.993342,493.795662 189.026289,493.795662 C188.684192,493.795662 188.342096,493.795662 188,493.710137 C189.881529,494.907474 192.105155,495.591667 194.414304,495.591667 C202.196993,495.591667 206.387672,489.177363 206.387672,483.618299 C206.387672,483.447251 206.387672,483.276203 206.387672,483.105155 C207.242912,482.506486 207.927105,481.73677 208.525773,480.967053 Z" id="icon/twitter"></path>
            </g>
        </g>
    </g>
</svg>