<?xml version="1.0" encoding="UTF-8" standalone="no"?>
<svg width="68px" height="68px" viewBox="0 0 68 68" version="1.1" xmlns="http://www.w3.org/2000/svg" xmlns:xlink="http://www.w3.org/1999/xlink">
    <!-- Generator: Sketch 50.2 (55047) - http://www.bohemiancoding.com/sketch -->
    <title>linkedin icon</title>
    <desc>Created with Sketch.</desc>
    <defs>
        <filter x="-36.5%" y="-26.0%" width="172.9%" height="172.9%" filterUnits="objectBoundingBox" id="filter-1">
            <feOffset dx="0" dy="5" in="SourceAlpha" result="shadowOffsetOuter1"></feOffset>
            <feGaussianBlur stdDeviation="5" in="shadowOffsetOuter1" result="shadowBlurOuter1"></feGaussianBlur>
            <feColorMatrix values="0 0 0 0 0   0 0 0 0 0   0 0 0 0 0  0 0 0 0.2 0" type="matrix" in="shadowBlurOuter1" result="shadowMatrixOuter1"></feColorMatrix>
            <feMerge>
                <feMergeNode in="shadowMatrixOuter1"></feMergeNode>
                <feMergeNode in="SourceGraphic"></feMergeNode>
            </feMerge>
        </filter>
    </defs>
    <g id="Symbols" stroke="none" stroke-width="1" fill="none" fill-rule="evenodd">
        <g id="team-member2" transform="translate(-135.000000, -38.000000)">
            <g id="profile-copy-4" transform="translate(17.000000, 0.000000)">
                <g id="linkedin-icon" transform="translate(128.000000, 43.000000)">
                    <g filter="url(#filter-1)">
                        <circle id="Oval-7" fill="#181C24" cx="24" cy="24" r="24"></circle>
                        <g id="logo-linkedin" transform="translate(12.000000, 13.000000)" fill="#FFFFFF">
                            <g id="Group-6" transform="translate(4.000000, 2.000000)">
                                <polygon id="Path" points="4.1 17.5 0.6 17.5 0.6 6 4.2 6 4.2 17.5"></polygon>
                                <path d="M2.3,4.4 C1.2,4.4 0.2,3.5 0.2,2.3 C0.2,1.2 1.1,0.2 2.3,0.2 C3.4,0.2 4.4,1.1 4.4,2.3 C4.4,3.5 3.5,4.4 2.3,4.4 Z" id="Path"></path>
                                <path d="M17.5,17.5 L13.9,17.5 L13.9,11.9 C13.9,10.6 13.9,8.9 12.1,8.9 C10.2,8.9 10,10.3 10,11.8 L10,17.5 L6.4,17.5 L6.4,6 L9.8,6 L9.8,7.6 C10.3,6.7 11.4,5.8 13.2,5.8 C16.8,5.8 17.5,8.2 17.5,11.3 L17.5,17.5 Z" id="Path"></path>
                            </g>
                        </g>
                    </g>
                </g>
            </g>
        </g>
    </g>
</svg>